<svg width="1929" height="185" viewBox="0 0 1929 185" fill="none" xmlns="http://www.w3.org/2000/svg">
<path d="M0.543434 182V3.16318H71.1001C84.6643 3.16318 96.22 5.75375 105.767 10.9349C115.315 16.0578 122.591 23.1892 127.598 32.3289C132.663 41.4105 135.195 51.8892 135.195 63.7651C135.195 75.641 132.634 86.1197 127.511 95.2013C122.388 104.283 114.965 111.356 105.243 116.421C95.5796 121.485 83.8784 124.018 70.1396 124.018H25.1684V93.7168H64.027C71.3039 93.7168 77.3001 92.4652 82.0155 89.9619C86.7891 87.4004 90.3402 83.8784 92.6688 79.3959C95.0557 74.8551 96.2491 69.6448 96.2491 63.7651C96.2491 57.8272 95.0557 52.646 92.6688 48.2217C90.3402 43.7391 86.7891 40.2753 82.0155 37.8303C77.2418 35.327 71.1875 34.0754 63.8524 34.0754H38.3541V182H0.543434ZM169.928 182H129.41L191.147 3.16318H239.873L301.523 182H261.005L216.209 44.0302H214.811L169.928 182ZM167.395 111.705H263.101V141.22H167.395V111.705ZM323.048 182V3.16318H393.605C407.11 3.16318 418.637 5.57911 428.184 10.411C437.79 15.1846 445.096 21.9667 450.102 30.7571C455.167 39.4894 457.699 49.7644 457.699 61.582C457.699 73.4579 455.138 83.6747 450.015 92.2323C444.892 100.732 437.47 107.252 427.748 111.793C418.084 116.333 406.383 118.604 392.644 118.604H345.402V88.2155H386.531C393.75 88.2155 399.746 87.2258 404.52 85.2465C409.294 83.2672 412.845 80.2982 415.173 76.3396C417.56 72.3809 418.753 67.4618 418.753 61.582C418.753 55.6441 417.56 50.6376 415.173 46.5625C412.845 42.4875 409.264 39.4021 404.433 37.3063C399.659 35.1524 393.634 34.0754 386.357 34.0754H360.859V182H323.048ZM419.627 100.615L464.074 182H422.334L378.847 100.615H419.627ZM515.245 182H474.727L536.464 3.16318H585.19L646.84 182H606.323L561.526 44.0302H560.129L515.245 182ZM512.713 111.705H608.418V141.22H512.713V111.705ZM668.365 182V3.16318H706.176V82.0155H708.534L772.891 3.16318H818.211L751.846 83.2381L818.997 182H773.764L724.776 108.474L706.176 131.178V182H668.365ZM987.486 3.16318V182H954.827L877.023 69.4411H875.713V182H837.902V3.16318H871.085L948.278 115.635H949.85V3.16318H987.486ZM1183.07 92.5816C1183.07 112.084 1179.37 128.675 1171.98 142.356C1164.64 156.036 1154.63 166.486 1141.94 173.704C1129.31 180.865 1115.1 184.445 1099.32 184.445C1083.43 184.445 1069.17 180.836 1056.54 173.617C1043.9 166.398 1033.92 155.949 1026.58 142.268C1019.25 128.588 1015.58 112.025 1015.58 92.5816C1015.58 73.0795 1019.25 56.4882 1026.58 42.8077C1033.92 29.1271 1043.9 18.7066 1056.54 11.5462C1069.17 4.32748 1083.43 0.718145 1099.32 0.718145C1115.1 0.718145 1129.31 4.32748 1141.94 11.5462C1154.63 18.7066 1164.64 29.1271 1171.98 42.8077C1179.37 56.4882 1183.07 73.0795 1183.07 92.5816ZM1144.73 92.5816C1144.73 79.9489 1142.84 69.2955 1139.06 60.6215C1135.33 51.9474 1130.06 45.3691 1123.25 40.8866C1116.44 36.404 1108.46 34.1627 1099.32 34.1627C1090.18 34.1627 1082.21 36.404 1075.4 40.8866C1068.59 45.3691 1063.29 51.9474 1059.51 60.6215C1055.78 69.2955 1053.92 79.9489 1053.92 92.5816C1053.92 105.214 1055.78 115.868 1059.51 124.542C1063.29 133.216 1068.59 139.794 1075.4 144.277C1082.21 148.759 1090.18 151 1099.32 151C1108.46 151 1116.44 148.759 1123.25 144.277C1130.06 139.794 1135.33 133.216 1139.06 124.542C1142.84 115.868 1144.73 105.214 1144.73 92.5816Z" fill="url(#paint0_linear_509_5871)"/>
<path d="M1267.99 182V3.16318H1386.4V34.3374H1305.8V76.9508H1378.54V108.125H1305.8V182H1267.99ZM1420.32 182H1379.8L1441.54 3.16318H1490.27L1551.92 182H1511.4L1466.6 44.0302H1465.21L1420.32 182ZM1417.79 111.705H1513.5V141.22H1417.79V111.705ZM1573.44 182V3.16318H1644C1657.51 3.16318 1669.03 5.57911 1678.58 10.411C1688.18 15.1846 1695.49 21.9667 1700.5 30.7571C1705.56 39.4894 1708.09 49.7644 1708.09 61.582C1708.09 73.4579 1705.53 83.6747 1700.41 92.2323C1695.29 100.732 1687.86 107.252 1678.14 111.793C1668.48 116.333 1656.78 118.604 1643.04 118.604H1595.8V88.2155H1636.93C1644.15 88.2155 1650.14 87.2258 1654.91 85.2465C1659.69 83.2672 1663.24 80.2982 1665.57 76.3396C1667.96 72.3809 1669.15 67.4618 1669.15 61.582C1669.15 55.6441 1667.96 50.6376 1665.57 46.5625C1663.24 42.4875 1659.66 39.4021 1654.83 37.3063C1650.05 35.1524 1644.03 34.0754 1636.75 34.0754H1611.25V182H1573.44ZM1670.02 100.615L1714.47 182H1672.73L1629.24 100.615H1670.02ZM1734.82 3.16318H1781.45L1830.7 123.319H1832.79L1882.04 3.16318H1928.67V182H1892V65.5989H1890.51L1844.23 181.127H1819.26L1772.98 65.1623H1771.49V182H1734.82V3.16318Z" fill="white"/>
<defs>
<linearGradient id="paint0_linear_509_5871" x1="-15" y1="93.0001" x2="1190.37" y2="93.0001" gradientUnits="userSpaceOnUse">
<stop stop-color="#FF006B"/>
<stop offset="1" stop-color="#D61279"/>
</linearGradient>
</defs>
</svg>
